<svg width="123" height="123" viewBox="0 0 123 123" fill="none" xmlns="http://www.w3.org/2000/svg">
<path d="M14.7593 92.5011C21.8129 61.2939 36.8825 32.4654 58.4807 8.86114C58.8647 8.44332 59.3313 8.10978 59.8509 7.88161C60.3705 7.65345 60.9318 7.53564 61.4993 7.53564C62.0668 7.53564 62.6281 7.65345 63.1477 7.88161C63.6673 8.10978 64.1339 8.44332 64.5179 8.86114C65.3721 9.78364 66.0759 10.5626 66.6294 11.1981C87.1123 34.3711 101.423 62.3336 108.239 92.5011C97.1207 94.8439 85.8409 96.343 74.4963 96.9855L63.7901 118.388C63.5771 118.813 63.25 119.17 62.8454 119.42C62.4408 119.67 61.9747 119.802 61.4993 119.802C61.0238 119.802 60.5577 119.67 60.1531 119.42C59.7486 119.17 59.4214 118.813 59.2084 118.388L48.5023 96.9804C37.1577 96.3379 25.8779 94.8439 14.7593 92.5011ZM61.4993 76.8494C65.577 76.8494 69.4877 75.2295 72.371 72.3462C75.2544 69.4628 76.8743 65.5521 76.8743 61.4744C76.8743 57.3967 75.2544 53.486 72.371 50.6026C69.4877 47.7193 65.577 46.0994 61.4993 46.0994C57.4216 46.0994 53.5109 47.7193 50.6275 50.6026C47.7441 53.486 46.1243 57.3967 46.1243 61.4744C46.1243 65.5521 47.7441 69.4628 50.6275 72.3462C53.5109 75.2295 57.4216 76.8494 61.4993 76.8494Z" fill="white"/>
</svg>
